<svg xmlns:dc="http://purl.org/dc/elements/1.1/" xmlns:cc="http://creativecommons.org/ns#" xmlns:rdf="http://www.w3.org/1999/02/22-rdf-syntax-ns#" xmlns:svg="http://www.w3.org/2000/svg" xmlns="http://www.w3.org/2000/svg" xmlns:xlink="http://www.w3.org/1999/xlink" id="svg479242" viewBox="0 0 1024 768" height="" width=""  version="1.1">
  <metadata id="metadata479248">
    <rdf:rdf>
      <cc:work rdf:about="">
        <dc:format>image/svg+xml</dc:format>
        <dc:type rdf:resource="http://purl.org/dc/dcmitype/StillImage"></dc:type>
      </cc:work>
    </rdf:rdf>
  </metadata>
  <defs id="defs479246"></defs>
  <linearGradient spreadMethod="pad" y2="30%" x2="-10%" y1="120%" x1="30%" id="3d_gradient2-logo-b02c8742-d4c1-406b-aaa8-10e7c8bb733e">
    <stop id="stop479223" stop-opacity="1" stop-color="#ffffff" offset="0%"></stop>
    <stop id="stop479225" stop-opacity="1" stop-color="#000000" offset="100%"></stop>
  </linearGradient>
  <linearGradient gradientTransform="rotate(-30)" spreadMethod="pad" y2="30%" x2="-10%" y1="120%" x1="30%" id="3d_gradient3-logo-b02c8742-d4c1-406b-aaa8-10e7c8bb733e">
    <stop id="stop479228" stop-opacity="1" stop-color="#ffffff" offset="0%"></stop>
    <stop id="stop479230" stop-opacity="1" stop-color="#cccccc" offset="50%"></stop>
    <stop id="stop479232" stop-opacity="1" stop-color="#000000" offset="100%"></stop>
  </linearGradient>
  <g id="logo-group">
    <image xlink:href="" id="container" style="display: none;" x="272" y="144" width="480" height="480" transform="translate(0 0)"></image>
    <g id="logo-center" transform="translate(21.300521666666555 0)">
      <image xlink:href="" id="icon_container" style="display: none;" x="0" y="0"></image>
      <g id="slogan" style="font-style:normal;font-weight:700;font-size:32px;line-height:1;font-family:'Comfortaa Bold Alt2';font-variant-ligatures:none;text-align:center;text-anchor:middle" transform="translate(0 0)"></g>
      <g id="title" style="font-style:normal;font-weight:400;font-size:72px;line-height:1;font-family:'Brandmark Dots 1 Color';font-variant-ligatures:normal;text-align:center;text-anchor:middle" transform="translate(0 0)">
        <g id="path479251" aria-label="W" transform="translate(0 341.104) translate(50 -15.907955000000001) scale(2.3333333333333335) translate(-361.74734 50.401695)"> <path class="c1" d="M121.02703,121.80928c-0.64844,1.94434-2.37598,3.3125-4.39258,3.38477 c-2.0166,0.07129-3.88867-1.15234-4.6084-3.02441l-12.02539-30.53027l-12.02441,30.53027 c-0.7207,1.7998-2.44824,3.02441-4.39258,3.02441c-0.07227,0-0.14453,0-0.21582,0c-2.0166-0.07227-3.74414-1.44043-4.32031-3.38477 L66.23016,80.98213c-0.79199-2.52051,0.64844-5.18457,3.09668-5.97656c2.51953-0.79199,5.25586,0.64746,6.04785,3.16797 l8.78516,29.45117l11.44922-29.81055c0.71973-1.80078,2.44824-3.02441,4.3916-3.02441c1.94434,0,3.74512,1.22363,4.46484,3.02441 l11.44922,29.81055l4.46387-15.8418c0.79199-2.52051,3.52832-3.88867,6.04883-3.09668 c2.44823,0.79199,3.88866,3.45703,3.0957,5.97656L121.02703,121.80928z" transform="translate(295.735298 -125.189528)" stroke-width="0" stroke-linejoin="miter" stroke-miterlimit="2" fill="#bcb9b2" stroke="#bcb9b2"></path> <path class="c3" d="M133.98796,79.5417c0,2.66406-2.08789,4.82422-4.75195,4.82422c-2.66503,0-4.75292-2.16016-4.75292-4.82422 c0-2.5918,2.08789-4.75195,4.75292-4.75195C131.90007,74.78975,133.98796,76.94991,133.98796,79.5417z" transform="translate(295.735298 -125.189528)" stroke-width="0" stroke-linejoin="miter" stroke-miterlimit="2" fill="#7e7d78" stroke="#7e7d78"></path> </g>
        <g id="path479253" aria-label="J" transform="translate(0 341.104) translate(335.67951999999997 -18.92800000000001) scale(2.3333333333333335) translate(-464.18142 51.696)"> <path class="c1" d="M99.60163,116.9128c4.10449,0,4.96875-3.81641,4.96875-7.05664V92.57491 c0-2.5918,2.16016-4.75195,4.75195-4.75195c2.66406,0,4.82422,2.16016,4.82422,4.75195v17.28125 c0,9.9375-5.9043,16.63379-14.54492,16.63379c-5.47266,0-10.00879-2.16016-12.81738-6.04883 c-1.58398-2.16016-1.08008-5.1123,1.00879-6.69629c2.16016-1.51172,4.82422-0.79199,6.69629,1.08008 C95.71296,116.04854,97.22565,116.9128,99.60163,116.9128z" transform="translate(378.327963 -125.18887)" stroke-width="0" stroke-linejoin="miter" stroke-miterlimit="2" fill="#bcb9b2" stroke="#bcb9b2"></path> <path class="c3" d="M104.57038,78.2458c0-2.59277,2.16016-4.75293,4.75195-4.75293c2.66406,0,4.82422,2.16016,4.82422,4.75293 c0,2.66406-2.16016,4.82422-4.82422,4.82422C106.73054,83.07002,104.57038,80.90987,104.57038,78.2458z" transform="translate(378.327963 -125.18887)" stroke-width="0" stroke-linejoin="miter" stroke-miterlimit="2" fill="#7e7d78" stroke="#7e7d78"></path> </g>
        <g id="path479255" aria-label="o" transform="translate(0 341.104) translate(469.4709866666667 -18.92800000000001) scale(2.3333333333333335) translate(-501.52062 51.696)"> <path class="c1" d="M99.96436,126.48994c-14.61719,0-26.49902-11.88086-26.49902-26.57031 c0-8.20898,3.74512-15.69727,10.22559-20.80957c2.01563-1.58398,5.04004-1.22461,6.69629,0.86426 c1.58398,2.01563,1.22363,5.04004-0.86426,6.69629c-4.10449,3.24023-6.48047,7.99219-6.48047,13.24902 c0,9.36035,7.56055,16.99316,16.92188,16.99316c9.36035,0,16.99316-7.63281,16.99316-16.99316 c0-5.25684-2.37598-10.00879-6.55273-13.24902c-2.08789-1.65625-2.44824-4.68066-0.79199-6.69629 c1.58398-2.08887,4.6084-2.44824,6.69629-0.86426c6.48047,5.1123,10.22559,12.60059,10.22559,20.80957 C126.53467,114.60909,114.58154,126.48994,99.96436,126.48994z" transform="translate(428.05528 -125.18887)" stroke-width="0" stroke-linejoin="miter" stroke-miterlimit="2" fill="#bcb9b2" stroke="#bcb9b2"></path> <path class="c3" d="M99.96436,73.49287c2.66406,0,4.82422,2.16016,4.82422,4.8252c0,2.5918-2.16016,4.75195-4.82422,4.75195 c-2.59277,0-4.75293-2.16016-4.75293-4.75195C95.21143,75.65303,97.37158,73.49287,99.96436,73.49287z" transform="translate(428.05528 -125.18887)" stroke-width="0" stroke-linejoin="miter" stroke-miterlimit="2" fill="#7e7d78" stroke="#7e7d78"></path> </g>
        <g id="path479257" aria-label="h" transform="translate(0 341.104) translate(660.8539033333335 -15.90400000000001) scale(2.3333333333333335) translate(-563.54187 50.4)"> <path class="c1" d="M80.0542,79.5417c0-2.5918,2.16016-4.75195,4.75293-4.75195c2.66406,0,4.82422,2.16016,4.82422,4.75195 v16.56152h20.7373V93.8708c0-2.5918,2.16016-4.75195,4.82422-4.75195c2.59277,0,4.75293,2.16016,4.75293,4.75195v26.57031 c0,2.59277-2.16016,4.75293-4.75293,4.75293c-2.66406,0-4.82422-2.16016-4.82422-4.75293V105.1042h-20.7373v15.33691 c0,2.59277-2.16016,4.75293-4.82422,4.75293c-2.59277,0-4.75293-2.16016-4.75293-4.75293V79.5417z" transform="translate(483.48767 -125.18975)" stroke-width="0" stroke-linejoin="miter" stroke-miterlimit="2" fill="#bcb9b2" stroke="#bcb9b2"></path> <path class="c3" d="M110.36865,79.5417c0-2.5918,2.16016-4.75195,4.82422-4.75195c2.59277,0,4.75293,2.16016,4.75293,4.75195 c0,2.66406-2.16016,4.82422-4.75293,4.82422C112.52881,84.36592,110.36865,82.20576,110.36865,79.5417z" transform="translate(483.48767 -125.18975)" stroke-width="0" stroke-linejoin="miter" stroke-miterlimit="2" fill="#7e7d78" stroke="#7e7d78"></path> </g>
        <g id="path479259" aria-label="n" transform="translate(0 341.104) translate(829.2549566666669 -15.914098666666675) scale(2.3333333333333335) translate(-615.71375 50.404328)"> <path class="c1" d="M112.31299,108.12862V93.8708c0-2.66406,2.16016-4.82422,4.75195-4.82422 c2.66504,0,4.8252,2.16016,4.8252,4.75293v26.06543c0,1.65625-0.36035,3.09668-1.80078,4.32031 c-1.15234,0.86426-2.95215,1.5127-4.96777,0.50488c-1.08008-0.57617-1.65625-1.22461-2.44824-2.16016L87.68701,91.92647v28.51465 c0,2.59277-2.16016,4.75293-4.82422,4.75293c-2.59277,0-4.75293-2.16016-4.75293-4.75293v-39.8916 c0-1.7998,0.21582-3.95996,2.52051-5.18359c1.7998-1.00879,4.17578-0.86426,6.4082,1.72754L112.31299,108.12862z" transform="translate(537.60389 -125.189493)" stroke-width="0" stroke-linejoin="miter" stroke-miterlimit="2" fill="#bcb9b2" stroke="#bcb9b2"></path> <path class="c3" d="M121.89014,79.5417c0,2.66406-2.16016,4.75293-4.75293,4.75293c-2.66406,0-4.82422-2.08887-4.82422-4.75293 s2.16016-4.75195,4.82422-4.75195C119.72998,74.78975,121.89014,76.87764,121.89014,79.5417z" transform="translate(537.60389 -125.189493)" stroke-width="0" stroke-linejoin="miter" stroke-miterlimit="2" fill="#7e7d78" stroke="#7e7d78"></path> </g>
           </g>
      <image xlink:href="" id="icon" style="display: none;" x="0" y="0"></image>
    </g>
  </g>
</svg>