<svg xmlns:dc="http://purl.org/dc/elements/1.1/" xmlns:cc="http://creativecommons.org/ns#" xmlns:rdf="http://www.w3.org/1999/02/22-rdf-syntax-ns#" xmlns:svg="http://www.w3.org/2000/svg" xmlns="http://www.w3.org/2000/svg" xmlns:xlink="http://www.w3.org/1999/xlink" id="svg128630" viewBox="0 0 1024 768" height="768px" width="1024px" version="1.1">
  <metadata id="metadata128636">
    <rdf:rdf>
      <cc:work rdf:about="">
        <dc:format>image/svg+xml</dc:format>
        <dc:type rdf:resource="http://purl.org/dc/dcmitype/StillImage"></dc:type>
      </cc:work>
    </rdf:rdf>
  </metadata>
  <defs id="defs128634"></defs>
  <linearGradient spreadMethod="pad" y2="30%" x2="-10%" y1="120%" x1="30%" id="3d_gradient2-logo-7ca47e7d-6156-41c3-a60b-e2b170a3ac0e">
    <stop id="stop128611" stop-opacity="1" stop-color="#ffffff" offset="0%"></stop>
    <stop id="stop128613" stop-opacity="1" stop-color="#000000" offset="100%"></stop>
  </linearGradient>
  <linearGradient gradientTransform="rotate(-30)" spreadMethod="pad" y2="30%" x2="-10%" y1="120%" x1="30%" id="3d_gradient3-logo-7ca47e7d-6156-41c3-a60b-e2b170a3ac0e">
    <stop id="stop128616" stop-opacity="1" stop-color="#ffffff" offset="0%"></stop>
    <stop id="stop128618" stop-opacity="1" stop-color="#cccccc" offset="50%"></stop>
    <stop id="stop128620" stop-opacity="1" stop-color="#000000" offset="100%"></stop>
  </linearGradient>
  <g id="logo-group">
    <image xlink:href="" id="container" style="display: none;" x="272" y="144" width="480" height="480" transform="translate(0 0)"></image>
    <g id="logo-center" transform="translate(48.72772333333319 0)">
      <image xlink:href="" id="icon_container" style="display: none;" x="0" y="0"></image>
      <g id="slogan" style="font-style:normal;font-weight:700;font-size:32px;line-height:1;font-family:'Comfortaa Bold Alt2';font-variant-ligatures:none;text-align:center;text-anchor:middle" transform="translate(0 0)"></g>
      <g id="title" style="font-style:normal;font-weight:700;font-size:72px;line-height:1;font-family:'Comfortaa Bold Alt2';font-variant-ligatures:none;text-align:center;text-anchor:middle" transform="translate(0 0)">
        <path id="path128639" style="font-style:normal;font-weight:700;font-size:72px;line-height:1;font-family:'Comfortaa Bold Alt2';font-variant-ligatures:none;text-align:center;text-anchor:middle" d="m 437.68025,-55.368 c -0.504,-0.576 -1.224,-0.864 -2.16,-0.864 -1.008,0 -1.872,0.216 -2.448,0.576 -0.576,0.432 -1.008,1.008 -1.224,1.872 l -11.952,41.688 -11.016,-40.968 c -0.216,-0.72 -0.648,-1.368 -1.296,-1.8 -0.72,-0.432 -1.44,-0.648 -2.232,-0.648 -0.864,0 -1.656,0.288 -2.304,0.72 -0.72,0.504 -1.152,1.08 -1.296,1.8 l -10.872,40.608 -11.808,-41.04 c -0.288,-0.864 -0.792,-1.584 -1.44,-2.088 -0.648,-0.432 -1.368,-0.72 -2.232,-0.72 -1.008,0 -1.728,0.288 -2.304,0.864 -0.576,0.576 -0.792,1.368 -0.792,2.376 0,0.72 0.072,1.368 0.288,1.944 l 14.472,48.096 c 0.288,0.936 0.72,1.656 1.44,2.16 0.648,0.576 1.44,0.792 2.304,0.792 0.864,0 1.584,-0.216 2.232,-0.792 0.648,-0.576 1.152,-1.296 1.512,-2.232 l 10.872,-41.4 10.728,41.472 c 0.288,0.864 0.72,1.584 1.44,2.16 0.648,0.576 1.44,0.792 2.304,0.792 0.864,0 1.584,-0.216 2.232,-0.792 0.648,-0.576 1.152,-1.296 1.512,-2.232 l 14.472,-48.024 c 0.144,-0.576 0.288,-1.296 0.288,-2.016 0,-0.936 -0.288,-1.728 -0.72,-2.304 z" stroke-width="0" stroke-linejoin="miter" stroke-miterlimit="2" fill="#bcb9b2" stroke="#bcb9b2" transform="translate(0 342.532) translate(50 -24.976) scale(2.3333333333333335) translate(-372.30425 56.232)"></path>
        <path id="path128641" style="font-style:normal;font-weight:700;font-size:72px;line-height:1;font-family:'Comfortaa Bold Alt2';font-variant-ligatures:none;text-align:center;text-anchor:middle" d="m 495.89,-7.56 c 1.44,-2.592 2.232,-5.616 2.232,-9 v -35.928 c 0,-1.08 -0.36,-1.944 -1.08,-2.664 -0.72,-0.72 -1.656,-1.08 -2.736,-1.08 -1.08,0 -1.944,0.36 -2.664,1.08 -0.72,0.72 -1.008,1.584 -1.008,2.664 v 35.928 c 0,3.096 -0.936,5.616 -2.808,7.56 -1.872,2.016 -4.176,2.952 -7.056,2.952 -2.88,0 -5.256,-0.936 -7.056,-2.952 -1.872,-1.944 -2.736,-4.464 -2.736,-7.56 0,-1.08 -0.36,-1.944 -1.08,-2.664 -0.72,-0.72 -1.584,-1.08 -2.664,-1.08 -1.08,0 -1.944,0.36 -2.664,1.08 -0.72,0.72 -1.08,1.584 -1.08,2.664 0,3.384 0.72,6.408 2.16,9 1.44,2.592 3.528,4.68 6.12,6.12 2.592,1.44 5.616,2.16 9,2.16 3.312,0 6.336,-0.72 8.928,-2.16 2.592,-1.44 4.68,-3.528 6.192,-6.12 z" stroke-width="0" stroke-linejoin="miter" stroke-miterlimit="2" fill="#adaaa4" stroke="#adaaa4" transform="translate(0 342.532) translate(309.43341666666663 -24.976) scale(2.3333333333333335) translate(-463.49 56.232)"></path>
        <path id="path128643" style="font-style:normal;font-weight:700;font-size:72px;line-height:1;font-family:'Comfortaa Bold Alt2';font-variant-ligatures:none;text-align:center;text-anchor:middle" d="m 529.65462,0.288 c 5.544,0 10.22401,-1.944 14.112,-5.832 3.888,-3.888 5.904,-8.568 5.904,-14.112 0,-5.544 -2.016,-10.224 -5.904,-14.112 -3.88799,-3.888 -8.568,-5.904 -14.112,-5.904 -5.54399,0 -10.224,2.016 -14.11199,5.904 -3.88801,3.888 -5.83201,8.568 -5.83201,14.112 0,5.544 1.944,10.224 5.83201,14.112 3.88799,3.888 8.568,5.832 14.11199,5.832 z m 0,-33.048 c 3.60001,0 6.69601,1.296 9.28801,3.816 2.51999,2.592 3.816,5.688 3.816,9.288 0,3.6 -1.29601,6.696 -3.816,9.216 -2.592,2.592 -5.688,3.816 -9.28801,3.816 -3.6,0 -6.696,-1.224 -9.216,-3.816 -2.59199,-2.52 -3.816,-5.616 -3.816,-9.216 0,-3.6 1.22401,-6.696 3.816,-9.288 2.52,-2.52 5.616,-3.816 9.216,-3.816 z" stroke-width="0" stroke-linejoin="miter" stroke-miterlimit="2" fill="#9d9b95" stroke="#9d9b95" transform="translate(0 342.532) translate(463.9481966666666 13.664000000000001) scale(2.3333333333333335) translate(-509.71062 39.672)"></path>
        <path id="path128645" style="font-style:normal;font-weight:700;font-size:72px;line-height:1;font-family:'Comfortaa Bold Alt2';font-variant-ligatures:none;text-align:center;text-anchor:middle" d="m 589.03887,-37.584 c -2.664,-1.44 -5.616,-2.16 -8.928,-2.16 -2.448,0 -4.67999,0.432 -6.76799,1.296 -2.16001,0.864 -3.96,2.016 -5.47201,3.528 v -17.64 c 0,-1.08 -0.35999,-1.944 -1.00799,-2.664 -0.72001,-0.648 -1.58401,-1.008 -2.664,-1.008 -1.08001,0 -1.94401,0.36 -2.664,1.008 -0.72,0.72 -1.008,1.584 -1.008,2.664 V -3.6 c 0,1.08 0.288,1.944 1.008,2.664 0.71999,0.72 1.58399,1.008 2.664,1.008 1.07999,0 1.94399,-0.288 2.664,-1.008 0.648,-0.72 1.00799,-1.584 1.00799,-2.664 v -20.304 c 0,-1.728 0.432,-3.24 1.368,-4.68 0.93601,-1.368 2.232,-2.448 3.88801,-3.312 1.65599,-0.792 3.52799,-1.224 5.544,-1.224 3.456,0 6.192,1.008 8.27999,3.024 2.088,2.016 3.168,4.896 3.168,8.784 V -3.6 c 0,1.08 0.28801,1.944 1.00801,2.664 0.71999,0.72 1.58399,1.008 2.664,1.008 1.00799,0 1.87199,-0.288 2.592,-1.008 0.72,-0.72 1.07999,-1.584 1.07999,-2.664 v -17.712 c 0,-3.888 -0.79199,-7.2 -2.232,-9.936 -1.51199,-2.736 -3.59999,-4.896 -6.192,-6.336 z" stroke-width="0" stroke-linejoin="miter" stroke-miterlimit="2" fill="#8e8c87" stroke="#8e8c87" transform="translate(0 342.532) translate(629.1861366666667 -24.976) scale(2.3333333333333335) translate(-560.52688 56.232)"></path>
        <path id="path128647" style="font-style:normal;font-weight:700;font-size:72px;line-height:1;font-family:'Comfortaa Bold Alt2';font-variant-ligatures:none;text-align:center;text-anchor:middle" d="m 642.93763,0.216 c 1.008,0 1.87199,-0.36 2.59199,-1.08 0.72001,-0.72 1.00801,-1.584 1.00801,-2.592 V -21.96 c 0,-5.04 -1.80001,-9.36 -5.32801,-12.96 -3.59999,-3.6 -7.992,-5.4 -13.03199,-5.4 -5.11201,0 -9.432,1.8 -13.03201,5.4 -3.6,3.6 -5.39999,7.92 -5.39999,12.96 v 18.504 c 0,1.008 0.36,1.872 1.07999,2.592 0.72,0.72 1.584,1.008 2.52001,1.008 1.00799,0 1.87199,-0.288 2.592,-1.008 0.72,-0.72 1.00799,-1.584 1.00799,-2.592 V -21.96 c 0,-3.024 1.152,-5.688 3.312,-7.848 2.16001,-2.232 4.82401,-3.312 7.92001,-3.312 3.096,0 5.688,1.08 7.91999,3.312 2.16,2.16 3.24,4.824 3.24,7.848 v 18.576 c 0,0.936 0.36001,1.8 1.08001,2.52 0.71999,0.72 1.58399,1.08 2.52,1.08 z" stroke-width="0" stroke-linejoin="miter" stroke-miterlimit="2" fill="#7e7d78" stroke="#7e7d78" transform="translate(0 342.532) translate(790.6965533333336 12.151999999999987) scale(2.3333333333333335) translate(-609.74563 40.32)"></path>
      </g>
      <image xlink:href="" id="icon" style="display: none;" x="0" y="0"></image>
    </g>
  </g>
</svg>